<?xml version="1.0" encoding="UTF-8"?>
<svg xmlns="http://www.w3.org/2000/svg" viewBox="0 0 443.89 421.78">
  <defs>
    <style>
      .cls-1 {
        fill: none;
        stroke: #000;
        stroke-linecap: round;
        stroke-miterlimit: 10;
        stroke-width: 7px;
      }
    </style>
  </defs>
  <g id="Layer_2">
    <polyline class="cls-1" points="98.1 332.65 142.95 214.96 144.52 173.47"/>
    <path class="cls-1" d="M142.95,214.96l148.58,10.36c1.42.1,2.71.87,3.46,2.09l65.2,104.73c1.71,2.75,0,6.35-3.21,6.76l-106.73,13.71c-1.45.19-2.9-.35-3.88-1.44l-108.2-120.72"/>
    <polyline class="cls-1" points="333.88 150.85 307.88 150.85 306.49 180.02 283.07 252.86"/>
    <line class="cls-1" x1="249.53" y1="352.62" x2="266.4" y2="309.43"/>
    <circle class="cls-1" cx="98.1" cy="325.58" r="78.33"/>
    <circle class="cls-1" cx="98.1" cy="325.58" r="78.33"/>
    <circle class="cls-1" cx="357.98" cy="329.41" r="78.33"/>
    <path class="cls-1" d="M108.22,173.47c-7.98,3.04-13.27,10.67-13.23,19.04.03,7.82,4.69,14.99,11.91,18.32"/>
    <line class="cls-1" x1="106.9" y1="210.84" x2="124.29" y2="210.84"/>
    <polyline class="cls-1" points="108.22 173.47 122.51 173.08 143.81 173.47"/>
  </g>
  <g id="Layer_3">
    <path d="M339,111.63c-8.3-20.05-50.33-33.91-82.7-41.8-17.02-4.14-31.36-6.64-36.73-7.52h-.01c-.26-.05-.5-.08-.72-.12-.11-.02-.22-.03-.32-.05-.29-.05-.54-.09-.73-.12-.17-.02-.3-.04-.38-.06-.07,0-.1-.01-.1-.01-2.51-.35-5.12-.53-7.79-.53-12.41,0-23.48,3.96-30.66,10.12.19-1.09.12-2.22.12-3.35,0-18.04-10.6-32.67-23.68-32.67s-23.69,14.63-23.69,32.67,10.6,32.67,23.69,32.67c5.99,0,11.46-3.06,15.61-8.12,1.16-1.4,2.11-2.7,2.91-4.08.12-.03.41-.11.82-.2.21-.05.45-.1.72-.16.01.01.02,0,.02,0,1.07-.23,2.61-.48,4.35-.55l.02.03h-.06c-3.97,3.73-9.73,9.41-10.08,11.29v.02c-7.26,12.34-15.22,50.74-15.22,50.74,0,0-21.97,23.78-30.42,35.4-2.47,3.39-5.78,6.05-9.6,7.77l-.19.09h-.01c-2.76-.23-6.23.05-9.9.89-8.13,1.86-14.16,5.81-13.47,8.82.69,3,7.84,3.92,15.97,2.05,6.06-1.39,10.95-3.94,12.76-6.39h.32c4.91-.83,9.56-2.75,13.62-5.62,9.72-6.86,27.65-20.22,32.6-28.74,0,0,21.93-18.24,28.73-50.82.02-.06.03-.11.04-.17h0s0-.03.01-.04c.14.04.28.08.43.12,2.53.68,5.19,1.19,7.94,1.49.25.03.49.05.75.08.28.03.56.05.85.07.22.02.44.03.67.05.68.04,1.4.08,2.14.11,1.36-.06,4.25-.19,8.13-.32.06,0,.11,0,.16-.01.01.01.02.01.03,0h.01c1.68-.06,3.53-.12,5.53-.17h.01c23.01-.65,64.71-1,63.61,5.09,0,0,.01.23-.17.52-.03.05-.06.09-.1.14-.41.5-1.44,1.08-4.03.96h-.04c-11.21.55-27.11,4.86-43.68,12.46-22.08,10.1-38.75,23.01-42.98,32.33-.02.05-.04.1-.06.15-.39,1.26-.7,2.41-.95,3.45-.81,3.35-.95,5.53-.97,6.39-.01.27.11.52.31.7l60.65,53.32c.19.16.3.38.31.62l8.95,133.76-.22,1.34-19.9,33.96c-.38.64.15,1.43.92,1.37l1.87-.16.16-.02,4.73-.41c.25-.03.5-.15.66-.34l27.51-33.39.19-.39v-.02s.61-1.27.61-1.27l.38-.78-4.82-84.78c-.01-.28.09-.54.31-.73l21.08-18.86c.36-.32.4-.86.11-1.24l-20.72-26.82c-.37-.47-.18-1.14.36-1.39l8.35-3.81c.18-.09.33-.22.42-.38,2.77-4.88,43.58-76.86,44.94-79.27.02-.04.05-.08.09-.12,5.27-6.28,7.84-12.3,8.93-17.54,3.26-7.6.69-17.7.69-17.7ZM277.98,256.41c.46.43.35,1.16-.2,1.45l-3.11,1.66c-.61.32-1.37-.09-1.41-.76l-.27-4.85c-.05-.84,1-1.3,1.62-.71l3.37,3.21ZM277.53,160.41c-6.98,10.46-15.18,38.73-17.3,46.32-.22.76-1.24.92-1.71.28l-25.22-34.38h-.01s.97-.32.97-.32l.54-.18,41.64-13.1c.86-.27,1.58.65,1.09,1.38Z"/>
  </g>
</svg>