<?xml version="1.0" encoding="UTF-8"?>
<svg xmlns="http://www.w3.org/2000/svg" viewBox="0 0 438.23 424.74">
  <defs>
    <style>
      .cls-1 {
        stroke: #000;
        stroke-linecap: round;
        stroke-width: 7px;
      }

      .cls-1, .cls-2 {
        fill: none;
        stroke-miterlimit: 10;
      }

      .cls-2 {
        stroke: #359ed3;
      }
    </style>
  </defs>
  <g id="Layer_2">
    <polyline class="cls-1" points="89.57 327.23 133.77 211.26 135.32 170.39"/>
    <path class="cls-1" d="M133.77,211.26l146.4,10.21c1.4.1,2.67.86,3.41,2.05l64.25,103.2c1.69,2.71,0,6.25-3.16,6.66l-105.16,13.51c-1.43.18-2.86-.35-3.82-1.42l-106.61-118.95"/>
    <polyline class="cls-1" points="321.9 148.09 296.28 148.09 294.91 176.84 271.83 248.61"/>
    <line class="cls-1" x1="238.78" y1="346.91" x2="255.41" y2="304.35"/>
    <circle class="cls-1" cx="89.57" cy="320.26" r="77.18"/>
    <circle class="cls-1" cx="89.57" cy="320.26" r="77.18"/>
    <circle class="cls-1" cx="345.64" cy="324.04" r="77.18"/>
    <path class="cls-1" d="M99.54,170.39c-7.87,2.99-13.07,10.51-13.04,18.76.03,7.7,4.62,14.77,11.73,18.05"/>
    <line class="cls-1" x1="98.24" y1="207.2" x2="115.38" y2="207.2"/>
    <polyline class="cls-1" points="99.54 170.39 113.62 170 134.61 170.39"/>
  </g>
  <g id="Layer_3">
    <path d="M320.99,96.37c-.06-.08-.13-.16-.21-.23-58.7-46.44-121.14-52.17-138.77-52.82-3.06-.13-6.1.76-8.66,2.46l-5.25,3.5-1.73-.19-.27-.03c.04-.92.05-1.87.04-2.81-.36-17.43-11.19-31.33-24.2-31.07-13.03.26-23.3,14.59-22.94,32.02.35,17.41,11.18,31.32,24.21,31.06,6.41-.13,12.16-3.68,16.3-9.32.34-.47.94-.46,1.31-.16.18.16.3.38.31.65v2.5c-18.23,27.22-20.68,59.33-20.68,59.33-22.06,14.12-32.18,28.2-36.17,35.1-3.43.11-8.99.48-13.06,1.81-10.05,3.28-17.17,9.09-15.88,12.99,1.25,3.92,10.44,4.44,20.48,1.17,3.92-1.28,7.4-2.93,10.11-4.73,36.76-14.41,50.09-37.41,50.09-37.41,10.98-7.4,22.85-38.81,22.85-38.81l17.4.37,1.18.03h.19c7.54.05,26.29.36,43.11,2.03.6.19,20.31,6.84,18.74,11.05-9.5,1.83-20.92,5.65-32.66,11.25-21.21,10.08-37.22,22.96-41.31,32.26-.01.05-.04.13-.06.18-.39,1.26-.68,2.41-.92,3.44-.78,3.35-.91,5.53-.93,6.39-.01.26.1.51.29.7l58.31,53.25c.17.15.29.38.3.61l8.6,133.6-.22,1.33-19.12,33.92c-.37.64.15,1.43.88,1.37l1.81-.16.15-.02,4.54-.42c.25-.02.48-.14.64-.33l26.44-33.34.19-.39v-.02s.59-1.27.59-1.27l.35-.78-4.63-84.67c-.01-.29.09-.54.3-.74l20.26-18.84c.36-.31.4-.84.11-1.23l-19.92-26.79c-.34-.47-.17-1.14.35-1.38l8.03-3.81c.17-.08.31-.22.4-.38,2.65-4.87,41.89-76.76,43.2-79.17.02-.04.06-.08.09-.12,3.94-4.88,6.31-9.6,7.66-13.92l1.39-8.51c1.73-11.59-2.91-19.4-3.61-20.5ZM266.13,248.7c.45.43.35,1.16-.19,1.46l-2.99,1.65c-.58.32-1.32-.09-1.36-.77l-.25-4.83c-.05-.84.96-1.3,1.55-.71l3.24,3.2ZM265.71,152.84c-6.72,10.43-14.6,38.67-16.63,46.24-.22.76-1.2.93-1.65.3l-24.24-34.35h-.01s.92-.33.92-.33l.53-.17,40.03-13.09c.82-.26,1.51.65,1.05,1.4Z"/>
    <path class="cls-2" d="M197.45,101.78c-.43-.01-.81-.01-1.16-.01l-.02-.02,1.18.03Z"/>
  </g>
</svg>