<?xml version="1.0" encoding="UTF-8"?>
<svg xmlns="http://www.w3.org/2000/svg" viewBox="0 0 432.86 437.78">
  <defs>
    <style>
      .cls-1 {
        fill: #447a9b;
      }

      .cls-2 {
        fill: none;
        stroke: #000;
        stroke-linecap: round;
        stroke-miterlimit: 10;
        stroke-width: 7px;
      }
    </style>
  </defs>
  <g id="Layer_3">
    <polyline class="cls-2" points="81.91 327.67 125.19 214.12 126.71 174.1"/>
    <path class="cls-2" d="M125.19,214.12l143.35,10c1.37.1,2.62.84,3.34,2.01l62.91,101.05c1.65,2.65,0,6.12-3.09,6.52l-102.97,13.22c-1.4.18-2.8-.34-3.74-1.39l-104.39-116.47"/>
    <polyline class="cls-2" points="309.4 152.27 284.32 152.27 282.98 180.42 260.38 250.69"/>
    <line class="cls-2" x1="228.02" y1="346.94" x2="244.3" y2="305.27"/>
    <circle class="cls-2" cx="81.91" cy="320.85" r="75.58"/>
    <circle class="cls-2" cx="81.91" cy="320.85" r="75.58"/>
    <circle class="cls-2" cx="332.65" cy="324.55" r="75.58"/>
    <path class="cls-2" d="M91.68,174.1c-7.7,2.93-12.8,10.29-12.76,18.37.03,7.54,4.53,14.46,11.49,17.67"/>
    <line class="cls-2" x1="90.41" y1="210.14" x2="107.19" y2="210.14"/>
    <polyline class="cls-2" points="91.68 174.1 105.47 173.71 126.02 174.1"/>
  </g>
  <g id="Layer_2">
    <path class="cls-1" d="M255,358.8c-.02.13-.08.26-.17.38l.17-.38Z"/>
    <path d="M310.04,107.85c-.04-.09-.09-.17-.16-.25-50.01-54.16-109.89-69.27-126.93-72.6-2.97-.59-6.06-.2-8.81,1.07l-5.87,2.7-.1.05c.07-.91.1-1.84.1-2.77,0-17.16-10.39-31.07-23.21-31.07s-23.22,13.91-23.22,31.07,10.39,31.06,23.22,31.06c6.32,0,12.04-3.38,16.23-8.85.53-.69,1.64-.28,1.59.59-.56,11.02-5.58,51.74-47.41,109.42-.02.03-.04.05-.06.07-3.51-1.37-9.19-1.75-15.42-.78-9.91,1.54-17.47,5.92-16.87,9.78.6,3.86,9.13,5.74,19.05,4.2,4.15-.64,7.89-1.79,10.79-3.18h0s.03-.02.05-.03l.61-.3,4.58-2.28c9.1-7.72,45.65-40.07,68.79-81.26.18-.33.54-.5.91-.44,11.33,1.82,67.02,11.3,71.77,21.57.27.58-.18,1.23-.82,1.24-10.56.18-26.19,4.44-42.47,12.2-20.69,9.83-36.32,22.4-40.31,31.47-.01.05-.04.13-.06.18-.37,1.23-.66,2.35-.89,3.36-.76,3.27-.89,5.39-.91,6.23-.01.26.1.5.29.68l56.89,51.96c.17.15.28.37.29.6l8.39,130.35-.21,1.3-18.66,33.09c-.36.63.14,1.4.86,1.34l1.76-.16.15-.02,4.43-.4c.24-.02.47-.14.62-.33l25.81-32.53.17-.38v-.02s.58-1.24.58-1.24l.35-.76-4.52-82.62c-.01-.27.09-.52.29-.71l19.77-18.38c.34-.31.38-.83.11-1.2l-19.44-26.14c-.34-.46-.17-1.11.34-1.35l7.83-3.72c.17-.08.31-.21.4-.37,2.59-4.75,40.87-74.89,42.15-77.24.02-.04.05-.08.08-.12,13.88-17.18,7.81-32.46,7.1-34.08ZM254.73,248.67c.43.42.33,1.13-.19,1.42l-2.91,1.61c-.58.32-1.29-.08-1.33-.74l-.25-4.72c-.05-.82.94-1.27,1.52-.69l3.16,3.12ZM254.31,155.13c-6.55,10.19-14.24,37.74-16.23,45.13-.2.74-1.16.9-1.6.28l-23.66-33.51h-.01s.91-.31.91-.31l.51-.17,39.06-12.77c.8-.26,1.48.63,1.02,1.35Z"/>
    <path class="cls-1" d="M113.01,181.33l-.05.03h0s.03-.02.05-.03Z"/>
  </g>
</svg>